<svg height="512" viewBox="0 0 128 128" width="512" xmlns="http://www.w3.org/2000/svg" xmlns:xlink="http://www.w3.org/1999/xlink"><linearGradient id="a" gradientUnits="userSpaceOnUse" x1="83.818" x2="44.182" y1="83.818" y2="44.182"><stop offset="0" stop-color="#7c84e8"/><stop offset="1" stop-color="#ff637b"/></linearGradient><path d="m44.352 68.046a1.751 1.751 0 0 1 0-2.475l2.812-2.811a1.75 1.75 0 0 1 2.475 2.474l-2.812 2.812a1.749 1.749 0 0 1 -2.475 0zm14.746-13a1.748 1.748 0 0 0 1.237-.512l18.407-18.404a15.59 15.59 0 0 0 3.74-15.408 13.441 13.441 0 0 1 3.877-13.747 13.483 13.483 0 0 1 22.562 10.312 1.75 1.75 0 0 0 1.706 1.793 1.775 1.775 0 0 0 1.792-1.707 16.993 16.993 0 0 0 -5.61-13.054 17.123 17.123 0 0 0 -22.809.071 16.918 16.918 0 0 0 -4.879 17.31 12.1 12.1 0 0 1 -2.853 11.96l-18.408 18.403a1.75 1.75 0 0 0 1.24 2.987zm64.583-33.859a1.75 1.75 0 0 0 -2.6 2.344 13.592 13.592 0 0 1 -.057 18.106 13.441 13.441 0 0 1 -13.747 3.876 15.6 15.6 0 0 0 -15.408 3.741l-42.611 42.616a15.591 15.591 0 0 0 -3.741 15.408 13.437 13.437 0 0 1 -3.877 13.747 13.481 13.481 0 0 1 -22.56-10.312 1.753 1.753 0 0 0 -1.793-1.793 13.443 13.443 0 0 1 -10.368-4.455 13.591 13.591 0 0 1 .056-18.105 13.436 13.436 0 0 1 13.747-3.877 15.588 15.588 0 0 0 15.408-3.741 1.749 1.749 0 1 0 -2.474-2.474 12.094 12.094 0 0 1 -11.956 2.853 16.916 16.916 0 0 0 -17.31 4.879 17.121 17.121 0 0 0 -.071 22.808 16.99 16.99 0 0 0 11.308 5.564 16.989 16.989 0 1 0 33.252-6.072 12.1 12.1 0 0 1 2.853-11.96l42.612-42.608a12.1 12.1 0 0 1 11.961-2.853 16.914 16.914 0 0 0 17.305-4.879 17.123 17.123 0 0 0 .071-22.809zm-10.192 13.57a3.33 3.33 0 0 1 -3.373.955 1.75 1.75 0 0 0 -.972 3.362 6.9 6.9 0 0 0 1.907.265 6.7 6.7 0 0 0 5.023-2.222 6.917 6.917 0 0 0 .028-9.1 1.75 1.75 0 0 0 -2.6 2.344 3.384 3.384 0 0 1 -.013 4.4z" fill="url(#a)"/></svg>