<svg id="Capa_1" enable-background="new 0 0 512.005 512.005" height="512" viewBox="0 0 512.005 512.005" width="512" xmlns="http://www.w3.org/2000/svg"><g><g><g><path d="m475.886 236.547-219.884-179.769-219.884 179.769v251.384h439.768z" fill="#9e9797"/></g><g><path d="m435.263 243.335-179.261-146.557-219.884 179.769v211.384h410.775v-220.064c.001-9.508-4.269-18.514-11.63-24.532z" fill="#b9acac"/></g><g><g><g><g><g><g><g><g><g><g><path d="m402.588 477.565h-146.588l10.645-126.68c1.401-16.671 12.682-30.866 28.606-35.996l34.044-10.967 34.044 10.967c15.923 5.13 27.205 19.325 28.606 35.996z" fill="#fb3a82"/><path d="m402.586 477.57h-24.506l-10.646-133.768c-1.151-14.451-8.957-27.139-20.515-34.199l16.42 5.287c15.923 5.131 27.201 19.323 28.601 35.992z" fill="#fb1466"/><path d="m343.021 282.501v30.156c0 7.581-6.146 13.726-13.726 13.726-7.581 0-13.726-6.146-13.726-13.726v-30.156z" fill="#c86f5c"/></g></g><path d="m329.294 207.515c-20.104 0-36.401 16.297-36.401 36.401v15.815c0 18.626 16.297 35.934 36.401 35.934s36.401-17.308 36.401-35.934v-15.815c0-20.104-16.297-36.401-36.401-36.401z" fill="#d5887a"/><path d="m365.696 243.92v15.811c0 18.628-16.301 35.929-36.399 35.929-3.96 0-7.768-.674-11.34-1.899 14.555-4.971 25.059-19.067 25.059-34.031v-15.81c0-16.148-10.503-29.846-25.059-34.613 3.573-1.164 7.38-1.796 11.34-1.796 20.098 0 36.399 16.301 36.399 36.409z" fill="#c86f5c"/></g></g></g></g></g></g><g><g><g><g><g><g><g><g><path d="m256 477.565h-146.588l10.645-126.68c1.401-16.671 12.682-30.866 28.606-35.996l34.044-10.967 34.044 10.967c15.923 5.13 27.205 19.325 28.606 35.996z" fill="#27d1b3"/><path d="m256.005 477.57h-24.516l-10.646-133.768c-1.151-14.451-8.946-27.129-20.494-34.199l16.4 5.287c15.923 5.131 27.212 19.323 28.611 35.992z" fill="#20b69f"/><path d="m196.433 282.501v30.156c0 7.581-6.146 13.726-13.726 13.726-7.581 0-13.726-6.146-13.726-13.726v-30.156z" fill="#fdb0a0"/></g></g><path d="m182.706 207.515c-20.104 0-36.401 16.297-36.401 36.401v15.815c0 18.626 16.297 35.934 36.401 35.934s36.401-17.308 36.401-35.934v-15.815c0-20.104-16.297-36.401-36.401-36.401z" fill="#ffcec0"/><path d="m219.108 243.92v15.811c0 18.628-16.301 35.929-36.399 35.929-3.96 0-7.768-.674-11.34-1.899 14.555-4.971 25.059-19.067 25.059-34.031v-15.81c0-16.148-10.503-29.846-25.059-34.613 3.573-1.164 7.38-1.796 11.34-1.796 20.098 0 36.399 16.301 36.399 36.409z" fill="#fdb0a0"/></g></g></g></g></g></g><g><g><g><g><g><g><g><g><g><path d="m182.706 487.931h-146.588l9.097-47.48c2.381-12.427 11.349-22.565 23.392-26.445l40.805-13.145 40.805 13.145c12.043 3.88 21.012 14.018 23.392 26.445z" fill="#1faaee"/><path d="m182.705 487.936h-24.04l-9.091-53.522c-1.824-10.708-7.495-19.903-15.446-25.595l16.089 5.183c12.046 3.887 21.013 14.026 23.397 26.445z" fill="#1891cd"/><path d="m123.139 379.44v30.156c0 7.581-6.146 13.726-13.726 13.726-7.581 0-13.726-6.146-13.726-13.726v-30.156z" fill="#873f30"/></g></g><path d="m109.412 304.454c-20.104 0-36.401 16.297-36.401 36.401v15.815c0 18.626 16.297 35.934 36.401 35.934s36.401-17.308 36.401-35.934v-15.815c0-20.104-16.297-36.401-36.401-36.401z" fill="#a34f41"/><path d="m145.814 340.859v15.811c0 18.628-16.301 35.929-36.399 35.929-3.96 0-7.768-.674-11.34-1.899 14.555-4.971 25.059-19.067 25.059-34.031v-15.811c0-16.148-10.503-29.846-25.059-34.613 3.573-1.164 7.38-1.796 11.34-1.796 20.098.001 36.399 16.302 36.399 36.41z" fill="#873f30"/></g></g></g></g></g></g><g><g><g><g><g><g><g><g><path d="m329.294 487.931h-146.588l9.097-47.48c2.381-12.427 11.349-22.565 23.392-26.445l40.805-13.145 40.805 13.145c12.043 3.88 21.012 14.018 23.392 26.445z" fill="#21c1f8"/><path d="m329.296 487.936h-24.04l-9.091-53.522c-1.824-10.708-7.495-19.903-15.446-25.595l16.089 5.183c12.046 3.887 21.013 14.026 23.387 26.445z" fill="#1faaee"/><path d="m269.727 379.44v30.156c0 7.581-6.146 13.726-13.726 13.726-7.581 0-13.726-6.146-13.726-13.726v-30.156z" fill="#fdb0a0"/></g></g><path d="m256 304.454c-20.104 0-36.401 16.297-36.401 36.401v15.815c0 18.626 16.297 35.934 36.401 35.934s36.401-17.308 36.401-35.934v-15.815c0-20.104-16.297-36.401-36.401-36.401z" fill="#ffcec0"/><path d="m292.402 340.859v15.811c0 18.628-16.301 35.929-36.399 35.929-3.96 0-7.768-.674-11.34-1.899 14.555-4.971 25.059-19.067 25.059-34.031v-15.811c0-16.148-10.503-29.846-25.059-34.613 3.573-1.164 7.38-1.796 11.34-1.796 20.098.001 36.399 16.302 36.399 36.41z" fill="#fdb0a0"/></g></g></g></g></g></g></g><g><g><g><g><g><g><g><g><g><path d="m475.882 487.931h-146.588l9.097-47.48c2.381-12.427 11.349-22.565 23.392-26.445l40.805-13.145 40.805 13.145c12.043 3.88 21.012 14.018 23.392 26.445z" fill="#bcea73"/><path d="m475.886 487.936h-24.04l-9.102-53.522c-1.814-10.708-7.485-19.903-15.436-25.595l16.089 5.183c12.035 3.887 21.002 14.026 23.387 26.445z" fill="#a3e440"/><path d="m416.315 379.44v30.156c0 7.581-6.146 13.726-13.726 13.726-7.581 0-13.726-6.146-13.726-13.726v-30.156z" fill="#f69583"/></g></g><path d="m402.588 304.454c-20.104 0-36.401 16.297-36.401 36.401v15.815c0 18.626 16.297 35.934 36.401 35.934s36.401-17.308 36.401-35.934v-15.815c0-20.104-16.297-36.401-36.401-36.401z" fill="#fdb0a0"/><path d="m438.99 340.859v15.811c0 18.628-16.301 35.929-36.399 35.929-3.96 0-7.768-.674-11.34-1.899 14.555-4.971 25.059-19.067 25.059-34.031v-15.811c0-16.148-10.503-29.846-25.059-34.613 3.573-1.164 7.38-1.796 11.34-1.796 20.098.001 36.399 16.302 36.399 36.41z" fill="#f69583"/></g></g></g></g></g></g></g></g><g><g><path d="m488.942 242.291c-3.418 0-6.858-1.122-9.73-3.429l-223.21-179.335-223.21 179.335c-6.695 5.379-16.482 4.312-21.861-2.383s-4.312-16.482 2.383-21.86l232.95-187.16c5.688-4.57 13.79-4.57 19.478 0l232.95 187.16c6.695 5.379 7.762 15.166 2.383 21.86-3.073 3.824-7.583 5.812-12.133 5.812z" fill="#fca62f"/></g><g><path d="m501.072 236.484c-3.07 3.82-7.58 5.81-12.13 5.81-3.42 0-6.86-1.12-9.73-3.43l-20.18-16.22c2.25 1.04 4.67 1.55 7.08 1.55 5.01 0 9.97-2.19 13.35-6.4 3.84-4.77 4.7-10.97 2.83-16.36l16.4 13.18c6.69 5.38 7.76 15.17 2.38 21.87z" fill="#f98824"/></g></g></g></g><g><path d="m28.752 486.52c0 4.068 1.887 7.998 5.955 8.777.477.091.951.135 1.419.135 3.526 0 6.669-2.498 7.358-6.09l9.097-47.48c1.865-9.738 8.887-17.677 18.326-20.717l18.085-5.826c2.507 8.929 10.701 15.504 20.421 15.504 9.719 0 17.914-6.574 20.42-15.504l18.085 5.826c9.438 3.04 16.46 10.979 18.326 20.717l9.097 47.48c.688 3.592 3.832 6.09 7.358 6.09.468 0 .943-.044 1.419-.135 3.097-.593 5.376-3.014 5.947-5.93.002-.009.007-.016.008-.025l9.097-47.48c1.866-9.738 8.888-17.677 18.326-20.717l18.085-5.826c2.507 8.929 10.701 15.504 20.421 15.504 9.719 0 17.914-6.574 20.421-15.504l18.085 5.826c9.438 3.04 16.46 10.979 18.326 20.717l9.097 47.48c.688 3.592 3.832 6.09 7.358 6.09.468 0 .943-.044 1.419-.135 3.097-.593 5.376-3.014 5.947-5.93.002-.009.007-.016.008-.025l9.072-47.354c.022-.102.044-.208.06-.291.757-4.072-1.93-7.988-6.002-8.745-3.995-.75-7.837 1.828-8.698 5.77-.024.106-.05.228-.068.317l-1.73 9.032-1.73-9.032c-2.898-15.124-13.803-27.451-28.459-32.172l-21.878-7.048v-5.335c13.4-7.534 22.674-21.827 22.674-37.814v-15.815c0-6.511-1.436-12.689-3.99-18.252.541-.205 1.088-.398 1.639-.575l11.323-3.648c2.507 8.929 10.701 15.503 20.421 15.503s17.914-6.574 20.421-15.503l11.323 3.648c.551.177 1.097.37 1.639.575-2.554 5.563-3.99 11.741-3.99 18.252v15.815c0 15.987 9.274 30.28 22.675 37.814v5.335l-21.597 6.957c-3.942 1.271-6.109 5.496-4.839 9.438 1.024 3.179 3.968 5.202 7.137 5.202.762 0 1.537-.117 2.301-.363l17.803-5.735c2.507 8.929 10.701 15.504 20.42 15.504s17.914-6.574 20.421-15.504l18.085 5.826c9.438 3.04 16.459 10.979 18.325 20.717l9.097 47.48c.688 3.592 3.832 6.09 7.358 6.09.468 0 .943-.044 1.419-.135 4.068-.779 5.955-4.563 5.955-8.777l.138-237.423c1.81.452 3.675.695 5.556.695 7.028 0 13.582-3.141 17.978-8.614 3.857-4.8 5.613-10.813 4.946-16.935-.667-6.12-3.678-11.614-8.478-15.471l-69.425-55.778c-3.229-2.596-7.95-2.08-10.544 1.149s-2.08 7.949 1.149 10.544l69.425 55.778c1.676 1.347 2.728 3.266 2.96 5.403.233 2.137-.38 4.236-1.729 5.914-1.536 1.912-3.826 3.009-6.284 3.009-1.287 0-3.205-.309-5.032-1.776l-223.21-179.334c-2.743-2.205-6.651-2.205-9.395 0l-112.939 90.74c-3.229 2.595-3.744 7.315-1.149 10.544 2.594 3.23 7.315 3.743 10.544 1.149l108.242-86.965 212.384 170.637v184.711c-5.187-8.219-13.132-14.548-22.693-17.628l-21.878-7.048v-5.336c13.4-7.534 22.674-21.827 22.674-37.814v-15.815c0-24.207-19.694-43.901-43.901-43.901-12.201 0-23.251 5.007-31.215 13.069-1.864-.872-3.778-1.642-5.736-2.272l-15.117-4.87v-5.336c13.4-7.534 22.674-21.827 22.674-37.814v-15.815c0-24.207-19.694-43.9-43.901-43.9s-43.901 19.693-43.901 43.9v15.815c0 15.986 9.274 30.28 22.674 37.814v5.336l-15.116 4.87c-1.959.631-3.873 1.401-5.736 2.272-7.964-8.062-19.014-13.069-31.215-13.069s-23.251 5.007-31.215 13.069c-1.865-.872-3.779-1.642-5.736-2.272l-15.117-4.87v-5.335c13.401-7.534 22.675-21.828 22.675-37.814v-15.815c0-24.207-19.694-43.9-43.901-43.9s-43.901 19.693-43.901 43.9v15.815c0 15.986 9.274 30.28 22.674 37.814v5.336l-15.116 4.87c-1.958.63-3.872 1.4-5.736 2.272-7.964-8.062-19.014-13.069-31.215-13.069-24.207 0-43.901 19.694-43.901 43.901v15.815c0 15.986 9.274 30.28 22.674 37.814v5.335l-21.878 7.048c-9.559 3.079-17.503 9.406-22.69 17.621v-184.705l76.584-61.53c3.229-2.595 3.744-7.315 1.149-10.544-2.594-3.229-7.314-3.743-10.544-1.149l-82.713 66.454c-3.459 2.779-8.537 2.228-11.317-1.234-1.347-1.676-1.96-3.775-1.727-5.913.233-2.137 1.284-4.056 2.96-5.402l232.951-187.16c2.922-2.348 7.162-2.348 10.084 0l135.996 109.264c3.229 2.596 7.95 2.079 10.544-1.149s2.08-7.949-1.149-10.544l-135.996-109.264c-8.365-6.721-20.508-6.721-28.873 0l-232.95 187.159c-4.8 3.856-7.811 9.351-8.478 15.471-.667 6.121 1.089 12.135 4.946 16.934 4.547 5.66 11.24 8.604 17.991 8.604 1.858 0 3.72-.228 5.543-.679zm125.054-242.604c0-15.936 12.965-28.9 28.901-28.9s28.901 12.965 28.901 28.9v15.815c0 15.146-13.505 28.434-28.901 28.434s-28.901-13.287-28.901-28.434zm28.9 59.249c2.109 0 4.187-.164 6.226-.465v9.957c0 3.434-2.793 6.227-6.226 6.227s-6.227-2.793-6.227-6.227v-9.957c2.04.301 4.118.465 6.227.465zm-102.194 37.69c0-15.937 12.965-28.901 28.901-28.901s28.901 12.965 28.901 28.901v15.815c0 15.146-13.505 28.434-28.901 28.434s-28.901-13.287-28.901-28.434zm28.9 74.968c-3.433 0-6.227-2.793-6.227-6.227v-9.957c2.04.301 4.118.465 6.227.465s4.187-.164 6.226-.465v9.957c.001 3.434-2.792 6.227-6.226 6.227zm103.484-8.955c-14.656 4.721-25.561 17.048-28.459 32.172l-1.73 9.032-1.73-9.032c-2.898-15.124-13.803-27.451-28.459-32.172l-21.878-7.048v-5.335c13.401-7.534 22.675-21.828 22.675-37.814v-15.815c0-6.511-1.436-12.689-3.99-18.252.541-.205 1.088-.398 1.639-.575l11.323-3.648c2.507 8.929 10.701 15.503 20.421 15.503 9.719 0 17.913-6.574 20.42-15.503l11.325 3.649c.55.177 1.096.369 1.637.575-2.554 5.563-3.99 11.741-3.99 18.252v15.815c0 15.986 9.274 30.28 22.674 37.814v5.335zm49.331 2.728c0 3.434-2.793 6.227-6.227 6.227-3.433 0-6.227-2.793-6.227-6.227v-9.957c2.04.301 4.118.465 6.227.465s4.187-.164 6.227-.465zm22.674-52.925c0 15.146-13.505 28.434-28.901 28.434s-28.901-13.287-28.901-28.434v-15.815c0-15.937 12.965-28.901 28.901-28.901s28.901 12.965 28.901 28.901zm15.492-112.755c0-15.936 12.965-28.9 28.901-28.9s28.901 12.965 28.901 28.9v15.815c0 15.146-13.505 28.434-28.901 28.434s-28.901-13.287-28.901-28.434zm28.901 74.967c-3.433 0-6.227-2.793-6.227-6.227v-9.956c2.04.301 4.118.465 6.227.465s4.187-.164 6.227-.465v9.957c0 3.433-2.794 6.226-6.227 6.226zm44.393 21.972c0-15.937 12.965-28.901 28.901-28.901s28.901 12.965 28.901 28.901v15.815c0 15.146-13.505 28.434-28.901 28.434s-28.901-13.287-28.901-28.434zm28.901 74.968c-3.433 0-6.226-2.793-6.226-6.227v-9.957c2.039.301 4.117.465 6.226.465s4.187-.164 6.227-.465v9.957c0 3.434-2.794 6.227-6.227 6.227z"/><path d="m256.002 205.76c24.478 0 44.391-19.913 44.391-44.391s-19.914-44.391-44.391-44.391-44.391 19.913-44.391 44.391 19.914 44.391 44.391 44.391zm7.5-31.409 11.78 9.173c-3.35 2.919-7.361 5.095-11.78 6.263zm-15 15.436c-4.42-1.167-8.431-3.344-11.78-6.263l11.78-9.173zm36.891-28.417c0 3.407-.589 6.678-1.66 9.723l-20.231-15.753v-22.387c12.585 3.323 21.891 14.802 21.891 28.417zm-36.891-28.418v22.387l-20.231 15.753c-1.071-3.045-1.66-6.316-1.66-9.723 0-13.614 9.307-25.093 21.891-28.417z"/></g></g></svg>